# xmcd CD database file
#
# Track frame offsets:
#	150
#	11790
#	21885
#	33395
#	43865
#	55947
#	68377
#	81550
#	94080
#	105845
#	118230
#	131145
#
# Disc length: 1903 seconds
#
# Revision: 0
# Processed by: cddbd v1.5.1PL0 Copyright (c) Steve Scherf et al.
# Submitted via: CDex 1.51
#
DISCID=9e076d0c
DTITLE=Tyree Glenn - Let's Have A Ball
DYEAR=2004
DGENRE=Jazz
TTITLE0=Love For Sale
TTITLE1=Gimme A Little Kiss, Will Ya Huh?
TTITLE2=Yes sir, That's My Baby
TTITLE3=Angel Eyes
TTITLE4=Like Someone In Love
TTITLE5=Stairway To The Stars
TTITLE6=Take Your Shoes Off Baby
TTITLE7=Yesterdays
TTITLE8=If Winter Comes
TTITLE9=I've Got The World On A Strings
TTITLE10=Sometimes I'm Happy
TTITLE11=If I Should Lose You
EXTD=YEAR: 2004
EXTT0=
EXTT1=
EXTT2=
EXTT3=
EXTT4=
EXTT5=
EXTT6=
EXTT7=
EXTT8=
EXTT9=
EXTT10=
EXTT11=
PLAYORDER=
